<svg aria-hidden="true" style="position: absolute; width: 0; height: 0; overflow: hidden;" version="1.1" xmlns="http://www.w3.org/2000/svg" xmlns:xlink="http://www.w3.org/1999/xlink">
<defs>
<symbol id="question" viewBox="0 0 32 32">
<path fill="#bdbdbd" style="fill: var(--color1, #bdbdbd)" d="M16 29.333c-7.364 0-13.333-5.969-13.333-13.333s5.969-13.333 13.333-13.333c7.364 0 13.333 5.969 13.333 13.333s-5.969 13.333-13.333 13.333zM14.667 20v2.667h2.667v-2.667h-2.667zM17.333 17.807c1.072-0.323 1.991-1.020 2.592-1.964s0.842-2.073 0.681-3.18c-0.161-1.107-0.715-2.12-1.561-2.853s-1.926-1.139-3.045-1.142c-1.079-0-2.124 0.374-2.959 1.057s-1.406 1.636-1.618 2.693l2.616 0.524c0.074-0.371 0.252-0.714 0.514-0.988s0.595-0.468 0.963-0.56 0.753-0.077 1.113 0.042c0.36 0.119 0.678 0.338 0.918 0.631s0.392 0.648 0.439 1.024-0.015 0.757-0.177 1.1c-0.162 0.342-0.418 0.632-0.738 0.834s-0.691 0.31-1.070 0.31c-0.354 0-0.693 0.141-0.943 0.391s-0.391 0.589-0.391 0.943v2h2.667v-0.86z"></path>
</symbol>
<symbol id="info" viewBox="0 0 32 32">
<path fill="#bdbdbd" style="fill: var(--color1, #bdbdbd)" d="M16 29.333c-7.364 0-13.333-5.969-13.333-13.333s5.969-13.333 13.333-13.333c7.364 0 13.333 5.969 13.333 13.333s-5.969 13.333-13.333 13.333zM14.667 14.667v8h2.667v-8h-2.667zM14.667 9.333v2.667h2.667v-2.667h-2.667z"></path>
</symbol>
<symbol id="mastercard" viewBox="0 0 54 32">
<path fill="#ff5a00" style="fill: var(--color2, #ff5a00)" d="M33.723 3.425h-14.001v25.155h14.001v-25.155z"></path>
<path fill="#eb001b" style="fill: var(--color3, #eb001b)" d="M20.654 16c0-5.111 2.403-9.647 6.089-12.577-2.713-2.133-6.136-3.423-9.869-3.423-8.844 0-16 7.156-16 16s7.156 16 16 16c3.733 0 7.156-1.289 9.869-3.423-3.692-2.889-6.089-7.467-6.089-12.577z"></path>
<path fill="#f79e1b" style="fill: var(--color4, #f79e1b)" d="M52.611 16c0 8.844-7.156 16-16 16-3.733 0-7.156-1.289-9.869-3.423 3.733-2.936 6.089-7.467 6.089-12.577s-2.403-9.647-6.089-12.577c2.708-2.133 6.131-3.423 9.864-3.423 8.849 0 16.005 7.203 16.005 16z"></path>
</symbol>
<symbol id="visa" viewBox="0 0 100 32">
<path fill="#00579f" style="fill: var(--color5, #00579f)" d="M42.847 31.54h-8.010l5.010-30.977h8.009l-5.009 30.977z"></path>
<path fill="#00579f" style="fill: var(--color5, #00579f)" d="M71.882 1.319c-1.58-0.627-4.086-1.319-7.184-1.319-7.91 0-13.48 4.218-13.514 10.248-0.066 4.449 3.988 6.92 7.020 8.404 3.099 1.516 4.152 2.505 4.152 3.857-0.032 2.075-2.504 3.032-4.81 3.032-3.198 0-4.911-0.493-7.515-1.648l-1.055-0.495-1.121 6.954c1.879 0.856 5.34 1.615 8.933 1.649 8.404 0 13.876-4.153 13.94-10.579 0.032-3.526-2.108-6.228-6.723-8.436-2.801-1.417-4.517-2.373-4.517-3.823 0.033-1.318 1.451-2.669 4.613-2.669 2.604-0.066 4.517 0.56 5.966 1.186l0.724 0.329 1.089-6.689z"></path>
<path fill="#00579f" style="fill: var(--color5, #00579f)" d="M82.527 20.566c0.66-1.78 3.198-8.667 3.198-8.667-0.033 0.066 0.658-1.812 1.054-2.966l0.56 2.669c0 0 1.517 7.415 1.846 8.964-1.252 0-5.076 0-6.658 0zM92.414 0.563h-6.195c-1.911 0-3.362 0.56-4.186 2.57l-11.897 28.406h8.404c0 0 1.384-3.823 1.681-4.647 0.922 0 9.098 0 10.284 0 0.23 1.088 0.956 4.647 0.956 4.647h7.416l-6.462-30.976z"></path>
<path fill="#00579f" style="fill: var(--color5, #00579f)" d="M28.145 0.563l-7.844 21.123-0.857-4.284c-1.45-4.943-5.998-10.314-11.074-12.984l7.185 27.089h8.47l12.59-30.944h-8.47z"></path>
<path fill="#faa61a" style="fill: var(--color6, #faa61a)" d="M13.019 0.563h-12.887l-0.132 0.626c10.052 2.571 16.71 8.767 19.445 16.215l-2.801-14.237c-0.461-1.978-1.879-2.539-3.625-2.604z"></path>
</symbol>
</defs>
</svg>
