<svg aria-hidden="true" style="position: absolute; width: 0; height: 0; overflow: hidden;" version="1.1" xmlns="http://www.w3.org/2000/svg" xmlns:xlink="http://www.w3.org/1999/xlink">
<defs>
<symbol id="applePay" viewBox="0 0 78 32">
<path fill="#fff" style="fill: var(--color1, #fff)" d="M14.249 4.126c-0.913 1.081-2.375 1.933-3.836 1.812-0.183-1.461 0.533-3.014 1.37-3.973 0.913-1.111 2.512-1.903 3.806-1.964 0.152 1.522-0.441 3.014-1.34 4.126zM15.574 6.226c-2.116-0.122-3.928 1.203-4.932 1.203-1.020 0-2.558-1.142-4.232-1.111-2.177 0.030-4.202 1.264-5.313 3.227-2.284 3.928-0.594 9.743 1.614 12.94 1.081 1.583 2.375 3.319 4.080 3.258 1.614-0.061 2.253-1.050 4.202-1.050 1.964 0 2.527 1.050 4.232 1.020 1.766-0.031 2.877-1.583 3.958-3.167 1.233-1.796 1.735-3.547 1.766-3.638-0.031-0.030-3.41-1.324-3.441-5.222-0.030-3.258 2.664-4.811 2.786-4.902-1.522-2.253-3.897-2.497-4.719-2.558zM27.798 1.812v23.734h3.684v-8.114h5.1c4.658 0 7.932-3.197 7.932-7.825s-3.212-7.795-7.81-7.795h-8.906zM31.483 4.917h4.247c3.197 0 5.024 1.705 5.024 4.704s-1.827 4.719-5.039 4.719h-4.232v-9.423zM51.243 25.728c2.314 0 4.46-1.172 5.435-3.029h0.076v2.847h3.41v-11.814c0-3.425-2.74-5.633-6.957-5.633-3.912 0-6.805 2.238-6.911 5.313h3.319c0.274-1.461 1.629-2.421 3.486-2.421 2.253 0 3.517 1.050 3.517 2.984v1.309l-4.597 0.274c-4.278 0.259-6.592 2.010-6.592 5.054 0 3.075 2.39 5.115 5.815 5.115zM52.232 22.911c-1.964 0-3.212-0.944-3.212-2.39 0-1.492 1.203-2.36 3.502-2.497l4.095-0.259v1.34c0 2.223-1.888 3.806-4.384 3.806zM64.716 32c3.593 0 5.282-1.37 6.759-5.526l6.47-18.146h-3.745l-4.339 14.021h-0.076l-4.339-14.021h-3.852l6.242 17.279-0.335 1.050c-0.563 1.781-1.477 2.466-3.106 2.466-0.289 0-0.852-0.030-1.081-0.061v2.847c0.213 0.061 1.126 0.091 1.401 0.091z"></path>
</symbol>
<symbol id="gPay" viewBox="0 0 82 32">
<path fill="#fff" style="fill: var(--color1, #fff)" d="M38.065 15.563v9.434h-2.994v-23.296h7.937c2.011 0 3.727 0.671 5.13 2.012 1.434 1.341 2.152 2.978 2.152 4.912 0 1.98-0.717 3.618-2.152 4.943-1.388 1.325-3.103 1.98-5.13 1.98h-4.943v0.016zM38.065 4.569v8.124h5.005c1.185 0 2.183-0.405 2.963-1.201 0.795-0.795 1.201-1.762 1.201-2.854 0-1.076-0.405-2.027-1.201-2.822-0.78-0.826-1.762-1.232-2.963-1.232h-5.005v-0.016z"></path>
<path fill="#fff" style="fill: var(--color1, #fff)" d="M58.121 8.528c2.214 0 3.961 0.593 5.239 1.778s1.918 2.807 1.918 4.865v9.824h-2.853v-2.214h-0.125c-1.232 1.824-2.885 2.729-4.943 2.729-1.762 0-3.228-0.514-4.413-1.559s-1.778-2.339-1.778-3.898c0-1.653 0.624-2.963 1.871-3.929 1.247-0.982 2.916-1.466 4.99-1.466 1.778 0 3.243 0.327 4.382 0.982v-0.686c0-1.045-0.405-1.918-1.232-2.651s-1.793-1.092-2.9-1.092c-1.669 0-2.994 0.702-3.961 2.121l-2.635-1.653c1.45-2.105 3.602-3.15 6.44-3.15zM54.254 20.099c0 0.78 0.327 1.435 0.998 1.949 0.655 0.515 1.435 0.78 2.324 0.78 1.263 0 2.386-0.468 3.368-1.403s1.481-2.027 1.481-3.29c-0.936-0.733-2.23-1.107-3.898-1.107-1.216 0-2.23 0.296-3.041 0.873-0.827 0.608-1.232 1.341-1.232 2.199z"></path>
<path fill="#fff" style="fill: var(--color1, #fff)" d="M81.555 9.047l-9.98 22.953h-3.087l3.711-8.030-6.58-14.923h3.259l4.74 11.445h0.062l4.615-11.445h3.259z"></path>
<path fill="#4285f4" style="fill: var(--color2, #4285f4)" d="M26.154 13.655c0-0.976-0.087-1.91-0.25-2.808h-12.549v5.146l7.227 0.002c-0.293 1.712-1.236 3.172-2.682 4.145v3.338h4.302c2.512-2.325 3.951-5.762 3.951-9.822z"></path>
<path fill="#34a853" style="fill: var(--color3, #34a853)" d="M17.903 20.14c-1.198 0.808-2.74 1.28-4.544 1.28-3.485 0-6.442-2.348-7.5-5.514h-4.438v3.443c2.199 4.363 6.718 7.357 11.938 7.357 3.608 0 6.64-1.186 8.846-3.229l-4.302-3.337z"></path>
<path fill="#fabb05" style="fill: var(--color4, #fabb05)" d="M5.44 13.355c0-0.889 0.148-1.748 0.418-2.556v-3.443h-4.438c-0.909 1.804-1.421 3.841-1.421 5.999s0.513 4.195 1.421 5.999l4.438-3.443c-0.27-0.808-0.418-1.667-0.418-2.556z"></path>
<path fill="#e94235" style="fill: var(--color5, #e94235)" d="M13.359 5.286c1.969 0 3.733 0.678 5.125 2.004l3.813-3.809c-2.316-2.157-5.334-3.48-8.938-3.48-5.219 0-9.739 2.994-11.938 7.357l4.438 3.443c1.059-3.165 4.015-5.514 7.5-5.514z"></path>
</symbol>
</defs>
</svg>
