<svg aria-hidden="true" style="position: absolute; width: 0; height: 0; overflow: hidden;" version="1.1" xmlns="http://www.w3.org/2000/svg" xmlns:xlink="http://www.w3.org/1999/xlink">
<defs>
<symbol id="icon-delimiter" viewBox="0 0 32 32">
<path fill="none" stroke="#bdbdbd" style="stroke: var(--color1, #bdbdbd)" stroke-linejoin="round" stroke-linecap="round" stroke-miterlimit="4" stroke-width="2.6667" d="M12 24l8-8-8-8"></path>
</symbol>
<symbol id="icon-home" viewBox="0 0 32 32">
<path fill="#bdbdbd" style="fill: var(--color1, #bdbdbd)" d="M25.333 28h-18.667c-0.354 0-0.693-0.14-0.943-0.391s-0.391-0.589-0.391-0.943v-12h-4l13.769-12.517c0.245-0.223 0.565-0.347 0.897-0.347s0.652 0.124 0.897 0.347l13.769 12.517h-4v12c0 0.354-0.14 0.693-0.391 0.943s-0.589 0.391-0.943 0.391zM8 25.333h16v-13.124l-8-7.272-8 7.272v13.124zM16 20c-0.884 0-1.732-0.351-2.357-0.976s-0.976-1.473-0.976-2.357c0-0.884 0.351-1.732 0.976-2.357s1.473-0.976 2.357-0.976c0.884 0 1.732 0.351 2.357 0.976s0.976 1.473 0.976 2.357c0 0.884-0.351 1.732-0.976 2.357s-1.473 0.976-2.357 0.976z"></path>
</symbol>
</defs>
</svg>
