<svg width="" height="" viewBox="0 0 24 24" fill="none" xmlns="http://www.w3.org/2000/svg">
<path d="M18.5159 22H5.61266C4.7233 22 3.99976 21.2765 3.99976 20.3871V3.61291C3.99976 2.72355 4.7233 2.00001 5.61266 2.00001H12.1751C12.3869 1.99943 12.5968 2.04089 12.7926 2.12198C12.9883 2.20307 13.166 2.32218 13.3154 2.47243L19.6564 8.81339C19.8066 8.96278 19.9257 9.14049 20.0068 9.33623C20.0879 9.53196 20.1294 9.74184 20.1288 9.95371V20.3871C20.1288 21.2765 19.4052 22 18.5159 22ZM5.99976 3C5.46605 3 4.99976 3.46629 4.99976 4V20C4.99976 20.5337 5.46605 21 5.99976 21H17.9998C18.5335 21 18.9998 20.5337 18.9998 20V15V9.88221C18.999 9.62575 18.6805 9.18191 18.4998 9L12.8572 3.35745C12.6243 3.12451 12.3292 2.92765 11.9998 2.92855L5.99976 3Z" fill="#2F2F2F"/>
<path d="M17.8533 13.8268C17.8412 13.7382 17.77 13.6271 17.6936 13.5525C17.4748 13.3372 16.9939 13.2243 16.2612 13.2139C15.7647 13.2087 15.1674 13.2521 14.5389 13.3407C14.2576 13.1792 13.9677 13.0021 13.7402 12.7885C13.1274 12.2173 12.6169 11.4239 12.2974 10.5506C12.3183 10.469 12.3356 10.3978 12.353 10.3249C12.353 10.3249 12.6968 8.3664 12.6065 7.70317C12.5943 7.61288 12.5857 7.58684 12.5614 7.51566L12.5318 7.43926C12.4381 7.22224 12.254 6.99305 11.9658 7.00521L11.7957 7H11.7922C11.4693 7 11.2088 7.16494 11.1394 7.40975C10.931 8.18063 11.1463 9.33521 11.537 10.8284L11.4363 11.0714C11.1568 11.7555 10.806 12.443 10.497 13.049L10.4571 13.1271C10.1307 13.7643 9.83549 14.306 9.56638 14.7644L9.29032 14.9102C9.26949 14.9206 8.7955 15.1724 8.68438 15.2383C7.74162 15.8026 7.11658 16.4415 7.01241 16.9485C6.97942 17.1117 7.00373 17.3183 7.17214 17.4138L7.43952 17.5492C7.55584 17.6065 7.67912 17.6361 7.80412 17.6361C8.47604 17.6361 9.2556 16.7992 10.3303 14.9241C11.57 14.5213 12.9833 14.1845 14.2212 14.0004C15.1639 14.53 16.3237 14.8998 17.0564 14.8998C17.1866 14.8998 17.2995 14.8876 17.3898 14.8633C17.5304 14.8251 17.6485 14.7453 17.7214 14.6376C17.8638 14.4241 17.8915 14.1289 17.8533 13.8268ZM7.65828 17.1273C7.77982 16.7923 8.26596 16.129 8.98301 15.5422C9.02815 15.5057 9.13927 15.4015 9.23997 15.3043C8.48993 16.5006 7.98816 16.9763 7.65828 17.1273ZM11.9051 7.34724C12.1204 7.34724 12.2436 7.89068 12.254 8.40113C12.2645 8.91157 12.1447 9.26923 11.9971 9.53487C11.8738 9.14249 11.8148 8.5244 11.8148 8.11986C11.8148 8.11986 11.8061 7.34724 11.9051 7.34724ZM10.6376 14.3164C10.7887 14.0473 10.9449 13.7626 11.1047 13.4622C11.4953 12.7243 11.7419 12.1479 11.9242 11.6739C12.2888 12.3371 12.7437 12.9014 13.2767 13.3528C13.3444 13.4084 13.4156 13.4657 13.4885 13.523C12.4034 13.7365 11.4641 13.9987 10.6376 14.3164ZM17.4835 14.2556C17.4175 14.2956 17.2283 14.3199 17.1068 14.3199C16.7144 14.3199 16.2265 14.1411 15.5442 13.8476C15.8063 13.8285 16.0477 13.8181 16.263 13.8181C16.6571 13.8181 16.7734 13.8164 17.1606 13.9153C17.546 14.0143 17.5512 14.214 17.4835 14.2556Z" fill="#2F2F2F"/>
</svg>
