<svg width="28" height="28" viewBox="0 0 28 28" fill="none" xmlns="http://www.w3.org/2000/svg">
<g clip-path="url(#clip0_675_73229)">
<path d="M13.9997 2.33398C7.55618 2.33398 2.33301 7.55715 2.33301 14.0007C2.33301 19.8235 6.59951 24.65 12.1773 25.5262V17.3723H9.21401V14.0007H12.1773V11.4305C12.1773 8.50682 13.918 6.89215 16.5838 6.89215C17.8602 6.89215 19.1948 7.11965 19.1948 7.11965V9.98965H17.7248C16.2747 9.98965 15.8232 10.8892 15.8232 11.812V14.0007H19.0583L18.5415 17.3723H15.8232V25.5262C21.3998 24.6512 25.6663 19.8223 25.6663 14.0007C25.6663 7.55715 20.4432 2.33398 13.9997 2.33398Z" fill="white"/>
<path d="M13.9997 2.33398C7.55618 2.33398 2.33301 7.55715 2.33301 14.0007C2.33301 19.8235 6.59951 24.65 12.1773 25.5262V17.3723H9.21401V14.0007H12.1773V11.4305C12.1773 8.50682 13.918 6.89215 16.5838 6.89215C17.8602 6.89215 19.1948 7.11965 19.1948 7.11965V9.98965H17.7248C16.2747 9.98965 15.8232 10.8892 15.8232 11.812V14.0007H19.0583L18.5415 17.3723H15.8232V25.5262C21.3998 24.6512 25.6663 19.8223 25.6663 14.0007C25.6663 7.55715 20.4432 2.33398 13.9997 2.33398Z" fill="white"/>
</g>
<defs>
<clipPath id="clip0_675_73229">
<rect width="28" height="28" fill="white"/>
</clipPath>
</defs>
</svg>
