<svg width="28" height="28" viewBox="0 0 28 28" fill="none" xmlns="http://www.w3.org/2000/svg">
<g clip-path="url(#clip0_675_73232)">
<path d="M13.9997 2.33398C17.1695 2.33398 17.565 2.34565 18.8087 2.40398C20.0512 2.46232 20.897 2.65715 21.6413 2.94648C22.4113 3.24282 23.06 3.64415 23.7087 4.29165C24.3019 4.87486 24.761 5.58034 25.0538 6.35898C25.342 7.10215 25.538 7.94915 25.5963 9.19165C25.6512 10.4353 25.6663 10.8308 25.6663 14.0007C25.6663 17.1705 25.6547 17.566 25.5963 18.8097C25.538 20.0522 25.342 20.898 25.0538 21.6423C24.7618 22.4214 24.3027 23.127 23.7087 23.7097C23.1253 24.3027 22.4199 24.7617 21.6413 25.0548C20.8982 25.343 20.0512 25.539 18.8087 25.5973C17.565 25.6522 17.1695 25.6673 13.9997 25.6673C10.8298 25.6673 10.4343 25.6557 9.19067 25.5973C7.94817 25.539 7.10234 25.343 6.35801 25.0548C5.57906 24.7625 4.87346 24.3034 4.29067 23.7097C3.69732 23.1265 3.23826 22.421 2.94551 21.6423C2.65617 20.8992 2.46134 20.0522 2.40301 18.8097C2.34817 17.566 2.33301 17.1705 2.33301 14.0007C2.33301 10.8308 2.34467 10.4353 2.40301 9.19165C2.46134 7.94798 2.65617 7.10332 2.94551 6.35898C3.23745 5.57986 3.69661 4.87419 4.29067 4.29165C4.87362 3.69809 5.57917 3.239 6.35801 2.94648C7.10234 2.65715 7.94701 2.46232 9.19067 2.40398C10.4343 2.34915 10.8298 2.33398 13.9997 2.33398ZM13.9997 8.16732C12.4526 8.16732 10.9688 8.7819 9.87489 9.87586C8.78092 10.9698 8.16634 12.4536 8.16634 14.0007C8.16634 15.5477 8.78092 17.0315 9.87489 18.1254C10.9688 19.2194 12.4526 19.834 13.9997 19.834C15.5468 19.834 17.0305 19.2194 18.1245 18.1254C19.2184 17.0315 19.833 15.5477 19.833 14.0007C19.833 12.4536 19.2184 10.9698 18.1245 9.87586C17.0305 8.7819 15.5468 8.16732 13.9997 8.16732ZM21.583 7.87565C21.583 7.48888 21.4294 7.11794 21.1559 6.84445C20.8824 6.57096 20.5114 6.41732 20.1247 6.41732C19.7379 6.41732 19.367 6.57096 19.0935 6.84445C18.82 7.11794 18.6663 7.48888 18.6663 7.87565C18.6663 8.26243 18.82 8.63336 19.0935 8.90685C19.367 9.18034 19.7379 9.33398 20.1247 9.33398C20.5114 9.33398 20.8824 9.18034 21.1559 8.90685C21.4294 8.63336 21.583 8.26243 21.583 7.87565ZM13.9997 10.5007C14.9279 10.5007 15.8182 10.8694 16.4745 11.5258C17.1309 12.1822 17.4997 13.0724 17.4997 14.0007C17.4997 14.9289 17.1309 15.8191 16.4745 16.4755C15.8182 17.1319 14.9279 17.5007 13.9997 17.5007C13.0714 17.5007 12.1812 17.1319 11.5248 16.4755C10.8684 15.8191 10.4997 14.9289 10.4997 14.0007C10.4997 13.0724 10.8684 12.1822 11.5248 11.5258C12.1812 10.8694 13.0714 10.5007 13.9997 10.5007Z" fill="white"/>
<path d="M13.9997 2.33398C17.1695 2.33398 17.565 2.34565 18.8087 2.40398C20.0512 2.46232 20.897 2.65715 21.6413 2.94648C22.4113 3.24282 23.06 3.64415 23.7087 4.29165C24.3019 4.87486 24.761 5.58034 25.0538 6.35898C25.342 7.10215 25.538 7.94915 25.5963 9.19165C25.6512 10.4353 25.6663 10.8308 25.6663 14.0007C25.6663 17.1705 25.6547 17.566 25.5963 18.8097C25.538 20.0522 25.342 20.898 25.0538 21.6423C24.7618 22.4214 24.3027 23.127 23.7087 23.7097C23.1253 24.3027 22.4199 24.7617 21.6413 25.0548C20.8982 25.343 20.0512 25.539 18.8087 25.5973C17.565 25.6522 17.1695 25.6673 13.9997 25.6673C10.8298 25.6673 10.4343 25.6557 9.19067 25.5973C7.94817 25.539 7.10234 25.343 6.35801 25.0548C5.57906 24.7625 4.87346 24.3034 4.29067 23.7097C3.69732 23.1265 3.23826 22.421 2.94551 21.6423C2.65617 20.8992 2.46134 20.0522 2.40301 18.8097C2.34817 17.566 2.33301 17.1705 2.33301 14.0007C2.33301 10.8308 2.34467 10.4353 2.40301 9.19165C2.46134 7.94798 2.65617 7.10332 2.94551 6.35898C3.23745 5.57986 3.69661 4.87419 4.29067 4.29165C4.87362 3.69809 5.57917 3.239 6.35801 2.94648C7.10234 2.65715 7.94701 2.46232 9.19067 2.40398C10.4343 2.34915 10.8298 2.33398 13.9997 2.33398ZM13.9997 8.16732C12.4526 8.16732 10.9688 8.7819 9.87489 9.87586C8.78092 10.9698 8.16634 12.4536 8.16634 14.0007C8.16634 15.5477 8.78092 17.0315 9.87489 18.1254C10.9688 19.2194 12.4526 19.834 13.9997 19.834C15.5468 19.834 17.0305 19.2194 18.1245 18.1254C19.2184 17.0315 19.833 15.5477 19.833 14.0007C19.833 12.4536 19.2184 10.9698 18.1245 9.87586C17.0305 8.7819 15.5468 8.16732 13.9997 8.16732ZM21.583 7.87565C21.583 7.48888 21.4294 7.11794 21.1559 6.84445C20.8824 6.57096 20.5114 6.41732 20.1247 6.41732C19.7379 6.41732 19.367 6.57096 19.0935 6.84445C18.82 7.11794 18.6663 7.48888 18.6663 7.87565C18.6663 8.26243 18.82 8.63336 19.0935 8.90685C19.367 9.18034 19.7379 9.33398 20.1247 9.33398C20.5114 9.33398 20.8824 9.18034 21.1559 8.90685C21.4294 8.63336 21.583 8.26243 21.583 7.87565ZM13.9997 10.5007C14.9279 10.5007 15.8182 10.8694 16.4745 11.5258C17.1309 12.1822 17.4997 13.0724 17.4997 14.0007C17.4997 14.9289 17.1309 15.8191 16.4745 16.4755C15.8182 17.1319 14.9279 17.5007 13.9997 17.5007C13.0714 17.5007 12.1812 17.1319 11.5248 16.4755C10.8684 15.8191 10.4997 14.9289 10.4997 14.0007C10.4997 13.0724 10.8684 12.1822 11.5248 11.5258C12.1812 10.8694 13.0714 10.5007 13.9997 10.5007Z" fill="white"/>
</g>
<defs>
<clipPath id="clip0_675_73232">
<rect width="28" height="28" fill="white"/>
</clipPath>
</defs>
</svg>
