<svg aria-hidden="true" style="position: absolute; width: 0; height: 0; overflow: hidden;" version="1.1" xmlns="http://www.w3.org/2000/svg" xmlns:xlink="http://www.w3.org/1999/xlink">
<defs>
<symbol id="fb" viewBox="0 0 32 32">
<path fill=""  d="M16 2.667c-7.364 0-13.333 5.969-13.333 13.333 0 6.655 4.876 12.171 11.251 13.172v-9.319h-3.387v-3.853h3.387v-2.937c0-3.341 1.989-5.187 5.036-5.187 1.459 0 2.984 0.26 2.984 0.26v3.28h-1.68c-1.657 0-2.173 1.028-2.173 2.083v2.501h3.697l-0.591 3.853h-3.107v9.319c6.373-1 11.249-6.519 11.249-13.172 0-7.364-5.969-13.333-13.333-13.333z"></path>
</symbol>
<symbol id="insta" viewBox="0 0 32 32">
<path fill=""  d="M16 2.667c3.623 0 4.075 0.013 5.496 0.080 1.42 0.067 2.387 0.289 3.237 0.62 0.88 0.339 1.621 0.797 2.363 1.537 0.678 0.667 1.203 1.473 1.537 2.363 0.329 0.849 0.553 1.817 0.62 3.237 0.063 1.421 0.080 1.873 0.080 5.496s-0.013 4.075-0.080 5.496c-0.067 1.42-0.291 2.387-0.62 3.237-0.334 0.89-0.858 1.697-1.537 2.363-0.667 0.678-1.473 1.202-2.363 1.537-0.849 0.329-1.817 0.553-3.237 0.62-1.421 0.063-1.873 0.080-5.496 0.080s-4.075-0.013-5.496-0.080c-1.42-0.067-2.387-0.291-3.237-0.62-0.89-0.334-1.697-0.859-2.363-1.537-0.678-0.666-1.203-1.473-1.537-2.363-0.331-0.849-0.553-1.817-0.62-3.237-0.063-1.421-0.080-1.873-0.080-5.496s0.013-4.075 0.080-5.496 0.289-2.387 0.62-3.237c0.334-0.89 0.858-1.697 1.537-2.363 0.666-0.678 1.473-1.203 2.363-1.537 0.851-0.331 1.816-0.553 3.237-0.62 1.421-0.063 1.873-0.080 5.496-0.080zM16 9.334c-1.768 0-3.464 0.702-4.714 1.953s-1.953 2.946-1.953 4.714c0 1.768 0.702 3.464 1.953 4.714s2.946 1.953 4.714 1.953 3.464-0.702 4.714-1.953c1.25-1.25 1.953-2.946 1.953-4.714s-0.702-3.464-1.953-4.714c-1.25-1.25-2.946-1.953-4.714-1.953zM24.666 9.001c0-0.442-0.176-0.866-0.488-1.178s-0.737-0.488-1.178-0.488c-0.442 0-0.866 0.176-1.178 0.488s-0.488 0.736-0.488 1.178c0 0.442 0.176 0.866 0.488 1.178s0.736 0.488 1.178 0.488c0.442 0 0.866-0.176 1.178-0.488s0.488-0.736 0.488-1.178zM16 12.001c1.061 0 2.078 0.421 2.828 1.172s1.172 1.768 1.172 2.828c0 1.061-0.422 2.078-1.172 2.828s-1.768 1.172-2.828 1.172c-1.061 0-2.078-0.421-2.828-1.172s-1.172-1.768-1.172-2.828c0-1.061 0.421-2.078 1.172-2.828s1.768-1.172 2.828-1.172z"></path>
</symbol>
<symbol id="tiktok" viewBox="0 0 32 32">
<path fill=""  d="M25.761 7.416c-0.203-0.105-0.4-0.219-0.591-0.344-0.556-0.367-1.065-0.8-1.517-1.289-1.131-1.294-1.554-2.607-1.709-3.527h0.006c-0.13-0.763-0.076-1.257-0.068-1.257h-5.153v19.924c0 0.267 0 0.532-0.011 0.793 0 0.032-0.003 0.063-0.005 0.098 0 0.014 0 0.029-0.003 0.044v0.011c-0.054 0.715-0.284 1.405-0.667 2.011s-0.911 1.107-1.534 1.462c-0.65 0.37-1.384 0.563-2.132 0.563-2.401 0-4.346-1.957-4.346-4.375s1.946-4.375 4.346-4.375c0.454-0 0.906 0.071 1.338 0.212l0.006-5.246c-1.312-0.169-2.644-0.065-3.913 0.306s-2.448 1.002-3.462 1.851c-0.888 0.772-1.635 1.692-2.206 2.721-0.217 0.375-1.038 1.882-1.138 4.328-0.063 1.388 0.354 2.826 0.553 3.421v0.013c0.125 0.35 0.609 1.544 1.399 2.551 0.637 0.808 1.389 1.517 2.232 2.106v-0.012l0.013 0.012c2.494 1.695 5.26 1.584 5.26 1.584 0.479-0.019 2.082 0 3.904-0.863 2.020-0.957 3.17-2.383 3.17-2.383 0.735-0.852 1.319-1.823 1.727-2.871 0.466-1.226 0.622-2.696 0.622-3.283v-10.57c0.062 0.037 0.895 0.588 0.895 0.588s1.199 0.769 3.071 1.269c1.343 0.356 3.151 0.431 3.151 0.431v-5.115c-0.634 0.069-1.921-0.131-3.238-0.788z"></path>
</symbol>
<symbol id="yt" viewBox="0 0 32 32">
<path fill=""  d="M28.724 8.663c0.609 2.376 0.609 7.336 0.609 7.336s0 4.96-0.609 7.336c-0.339 1.313-1.329 2.347-2.584 2.696-2.279 0.635-10.14 0.635-10.14 0.635s-7.857 0-10.14-0.635c-1.26-0.355-2.249-1.387-2.584-2.696-0.609-2.376-0.609-7.336-0.609-7.336s0-4.96 0.609-7.336c0.339-1.313 1.329-2.347 2.584-2.696 2.283-0.635 10.14-0.635 10.14-0.635s7.861 0 10.14 0.635c1.26 0.355 2.249 1.387 2.584 2.696zM13.333 20.666l8-4.667-8-4.667v9.333z"></path>
</symbol>
</defs>
</svg>
