<svg width="28" height="28" viewBox="0 0 28 28" fill="none" xmlns="http://www.w3.org/2000/svg">
<path d="M22.541 6.48922C22.3638 6.39765 22.1913 6.29726 22.0242 6.18844C21.5381 5.86712 21.0925 5.48852 20.6969 5.06078C19.7071 3.9282 19.3374 2.77922 19.2012 1.97477H19.2067C19.0929 1.30703 19.1399 0.875 19.1471 0.875H14.6386V18.3083C14.6386 18.5423 14.6386 18.7737 14.6288 19.0023C14.6288 19.0307 14.626 19.057 14.6244 19.0876C14.6244 19.1002 14.6244 19.1133 14.6217 19.1264V19.1363C14.5741 19.7618 14.3736 20.366 14.0378 20.8958C13.7019 21.4256 13.241 21.8648 12.6956 22.1747C12.1271 22.4981 11.4842 22.6677 10.8302 22.6669C8.72963 22.6669 7.02721 20.9541 7.02721 18.8388C7.02721 16.7234 8.72963 15.0106 10.8302 15.0106C11.2278 15.0103 11.623 15.0728 12.001 15.196L12.0065 10.6055C10.8588 10.4573 9.69285 10.5485 8.58218 10.8734C7.4715 11.1983 6.44022 11.7499 5.55338 12.4934C4.77631 13.1685 4.12302 13.9741 3.62291 14.8739C3.4326 15.202 2.71455 16.5205 2.6276 18.6605C2.57291 19.8751 2.93768 21.1334 3.11158 21.6535V21.6645C3.22096 21.9707 3.64479 23.0158 4.33549 23.8968C4.89245 24.6035 5.55048 25.2243 6.28838 25.7392V25.7283L6.29932 25.7392C8.4819 27.2223 10.9018 27.125 10.9018 27.125C11.3207 27.108 12.724 27.125 14.3176 26.3698C16.0851 25.5325 17.0914 24.2851 17.0914 24.2851C17.7342 23.5397 18.2454 22.6903 18.6029 21.7733C19.0109 20.7009 19.1471 19.4146 19.1471 18.9005V9.6518C19.2017 9.68461 19.9302 10.1664 19.9302 10.1664C19.9302 10.1664 20.9796 10.8391 22.617 11.2771C23.7917 11.5888 25.3743 11.6545 25.3743 11.6545V7.17883C24.8198 7.23898 23.6938 7.06398 22.541 6.48922Z" fill="white"/>
</svg>
