<svg width="28" height="28" viewBox="0 0 28 28" fill="none" xmlns="http://www.w3.org/2000/svg">
<g clip-path="url(#clip0_675_73238)">
<path d="M25.1332 7.58035C25.6663 9.65935 25.6663 13.9993 25.6663 13.9993C25.6663 13.9993 25.6663 18.3393 25.1332 20.4183C24.8368 21.5675 23.97 22.4717 22.8722 22.7773C20.8783 23.3327 13.9997 23.3327 13.9997 23.3327C13.9997 23.3327 7.12451 23.3327 5.12717 22.7773C4.02467 22.467 3.15901 21.564 2.86617 20.4183C2.33301 18.3393 2.33301 13.9993 2.33301 13.9993C2.33301 13.9993 2.33301 9.65935 2.86617 7.58035C3.16251 6.43118 4.02934 5.52702 5.12717 5.22135C7.12451 4.66602 13.9997 4.66602 13.9997 4.66602C13.9997 4.66602 20.8783 4.66602 22.8722 5.22135C23.9747 5.53168 24.8403 6.43468 25.1332 7.58035ZM11.6663 18.0827L18.6663 13.9993L11.6663 9.91602V18.0827Z" fill="white"/>
<path d="M25.1332 7.58035C25.6663 9.65935 25.6663 13.9993 25.6663 13.9993C25.6663 13.9993 25.6663 18.3393 25.1332 20.4183C24.8368 21.5675 23.97 22.4717 22.8722 22.7773C20.8783 23.3327 13.9997 23.3327 13.9997 23.3327C13.9997 23.3327 7.12451 23.3327 5.12717 22.7773C4.02467 22.467 3.15901 21.564 2.86617 20.4183C2.33301 18.3393 2.33301 13.9993 2.33301 13.9993C2.33301 13.9993 2.33301 9.65935 2.86617 7.58035C3.16251 6.43118 4.02934 5.52702 5.12717 5.22135C7.12451 4.66602 13.9997 4.66602 13.9997 4.66602C13.9997 4.66602 20.8783 4.66602 22.8722 5.22135C23.9747 5.53168 24.8403 6.43468 25.1332 7.58035ZM11.6663 18.0827L18.6663 13.9993L11.6663 9.91602V18.0827Z" fill="white"/>
</g>
<defs>
<clipPath id="clip0_675_73238">
<rect width="28" height="28" fill="white"/>
</clipPath>
</defs>
</svg>
